<svg xmlns="http://www.w3.org/2000/svg" version="1.1" xmlns:xlink="http://www.w3.org/1999/xlink" xmlns:svgjs="http://svgjs.com/svgjs" width="1000" height="1000"><rect width="1000" height="1000" rx="200" ry="200" fill="#26281e"></rect><g transform="matrix(3.951983401669713,0,0,3.951983401669713,99.99998828864005,181.03204625471017)"><svg xmlns="http://www.w3.org/2000/svg" version="1.1" xmlns:xlink="http://www.w3.org/1999/xlink" xmlns:svgjs="http://svgjs.com/svgjs" width="202.43" height="161.41"><svg xmlns="http://www.w3.org/2000/svg" viewBox="0 0 202.43 161.41"><defs><style>.cls-1{fill:#ffebc6;}</style></defs><title>Asset 2</title><g id="Layer_2" data-name="Layer 2"><g id="Layer_1-2" data-name="Layer 1"><path class="cls-1" d="M157.07,126.79a2.19,2.19,0,0,1-1.49-3.78l22-20.62Q189.7,90.93,195.23,80a52.3,52.3,0,0,0,5.53-23.88,54.56,54.56,0,0,0-4.59-22.42,53.63,53.63,0,0,0-12.72-17.83A58.08,58.08,0,0,0,164.16,4.17,68.89,68.89,0,0,0,139.86,0a66.51,66.51,0,0,0-24.5,4.38,57.22,57.22,0,0,0-12.84,7,2.21,2.21,0,0,1-2.61,0,57.22,57.22,0,0,0-12.84-7A66.53,66.53,0,0,0,62.56,0,68.88,68.88,0,0,0,38.27,4.17,58.08,58.08,0,0,0,19,15.85,53.63,53.63,0,0,0,6.26,33.68,54.56,54.56,0,0,0,1.67,56.1,52.29,52.29,0,0,0,7.19,80q5.54,10.93,17.63,22.41l22,20.62a2.19,2.19,0,0,1-1.5,3.78H2.19A2.19,2.19,0,0,0,0,129v30.25a2.19,2.19,0,0,0,2.19,2.18H200.24a2.19,2.19,0,0,0,2.19-2.18V129a2.19,2.19,0,0,0-2.19-2.19ZM114.84,121l-12,12.51a2.19,2.19,0,0,1-3.15,0L87.59,121q-15.44-16-24.19-27.21a151.41,151.41,0,0,1-13-18.87c-2.84-5.14-4.62-9.32-5.31-12.52a39,39,0,0,1-1-8.13,21.18,21.18,0,0,1,1.15-6.88,17.8,17.8,0,0,1,3.44-6,16.77,16.77,0,0,1,13.14-5.73q8.34,0,13,5.42A19.52,19.52,0,0,1,79.39,53a1.37,1.37,0,0,1,0,.35c-.12,1.2-.26,3.42-.37,5.22a2.58,2.58,0,0,0,2.57,2.73h39.26a2.58,2.58,0,0,0,2.58-2.74c-.11-1.8-.25-4-.38-5.21a2,2,0,0,1,0-.35,19.46,19.46,0,0,1,4.63-11.93q4.68-5.41,13-5.42a17.21,17.21,0,0,1,7.61,1.57,17.44,17.44,0,0,1,5.53,4.16,17.8,17.8,0,0,1,3.44,6,21.18,21.18,0,0,1,1.15,6.88,39,39,0,0,1-1.05,8.13c-.69,3.2-2.47,7.38-5.31,12.52a151.41,151.41,0,0,1-13,18.87Q130.27,104.9,114.84,121"></path></g></g></svg></svg></g></svg>