<?xml version="1.0" standalone="no"?>
<!DOCTYPE svg PUBLIC "-//W3C//DTD SVG 20010904//EN"
 "http://www.w3.org/TR/2001/REC-SVG-20010904/DTD/svg10.dtd">
<svg version="1.0" xmlns="http://www.w3.org/2000/svg"
 width="808.000000pt" height="808.000000pt" viewBox="0 0 808.000000 808.000000"
 preserveAspectRatio="xMidYMid meet">
<metadata>
Created by potrace 1.14, written by Peter Selinger 2001-2017
</metadata>
<g transform="translate(0.000000,808.000000) scale(0.100000,-0.100000)"
fill="#000000" stroke="none">
<path d="M2174 7245 c-122 -16 -167 -23 -244 -40 -14 -3 -37 -8 -52 -10 -15
-2 -46 -9 -70 -16 -24 -6 -47 -12 -53 -13 -5 -2 -30 -9 -55 -16 -25 -7 -49
-14 -55 -16 -5 -1 -62 -21 -125 -44 -385 -142 -731 -387 -969 -685 -31 -38
-62 -76 -68 -83 -7 -7 -13 -17 -13 -21 0 -4 -8 -16 -18 -27 -27 -28 -152 -242
-152 -258 0 -8 -3 -16 -8 -18 -14 -6 -120 -266 -137 -338 -2 -8 -15 -62 -29
-120 -24 -100 -35 -159 -42 -225 -1 -16 -6 -55 -9 -85 -8 -68 -8 -335 -1 -410
17 -165 42 -290 88 -435 17 -55 32 -102 33 -105 2 -7 14 -37 34 -85 79 -195
272 -495 436 -677 18 -21 32 -38 30 -38 -10 0 245 -258 381 -385 70 -66 146
-137 168 -158 23 -22 85 -80 139 -130 54 -51 123 -114 152 -142 29 -27 110
-104 181 -170 71 -66 140 -132 153 -147 53 -58 21 -138 -59 -144 -24 -2 -49
-5 -57 -8 -7 -3 -13 -2 -13 2 0 8 -178 8 -186 0 -2 -3 -22 -2 -42 2 -21 4 -47
3 -58 0 -10 -4 -23 -5 -27 -3 -12 7 -417 9 -417 2 0 -3 -21 -3 -47 1 -27 3
-65 3 -85 -1 -21 -3 -40 -4 -42 -1 -7 6 -466 8 -466 1 0 -3 -21 -3 -48 1 -26
3 -64 3 -84 -1 -21 -3 -40 -3 -43 -1 -9 9 -118 2 -146 -9 -15 -6 -31 -22 -38
-35 -16 -35 -16 -1253 0 -1287 6 -14 22 -30 36 -36 34 -16 7952 -16 7986 0 14
6 30 22 36 36 8 17 11 211 11 644 0 568 -1 623 -17 650 -11 18 -28 31 -48 34
-42 8 -285 11 -285 4 0 -3 -21 -3 -47 1 -27 3 -65 3 -85 -1 -21 -3 -40 -4 -42
-2 -7 7 -306 9 -306 2 0 -3 -21 -3 -48 1 -26 3 -62 3 -79 -1 -18 -3 -35 -4
-37 -1 -5 4 -170 6 -191 2 -5 -1 -14 -1 -20 0 -14 2 -127 3 -140 0 -5 -1 -14
-1 -20 0 -14 2 -127 3 -140 0 -5 -1 -14 -1 -20 0 -28 5 -132 3 -143 -4 -6 -4
-17 -4 -23 -1 -16 11 -69 12 -75 3 -3 -5 -11 -5 -17 -1 -7 4 -25 8 -41 9 -37
3 -67 37 -71 80 -4 39 3 47 225 254 130 121 228 213 320 299 25 24 87 82 139
129 240 221 523 513 620 640 20 26 42 51 49 55 6 4 12 14 12 22 0 7 4 15 9 17
14 5 141 191 141 207 0 5 3 11 8 13 15 6 126 225 157 308 7 19 16 44 21 55 4
11 8 22 9 25 1 3 4 12 8 20 8 20 50 171 62 225 2 6 5 26 9 45 3 19 8 46 11 59
5 28 16 108 21 166 5 53 5 372 0 410 -24 183 -33 236 -66 361 -42 159 -89 283
-163 429 -40 80 -99 179 -109 183 -4 2 -8 8 -8 14 0 5 -11 24 -25 42 -14 18
-25 36 -25 39 0 4 -8 16 -17 26 -10 11 -22 26 -28 33 -142 192 -410 425 -647
561 -185 107 -436 206 -638 254 -36 8 -74 17 -85 20 -57 13 -202 37 -305 50
-82 10 -548 10 -615 0 -27 -4 -67 -10 -87 -13 -21 -3 -50 -7 -65 -9 -15 -2
-53 -9 -83 -15 -30 -6 -66 -14 -80 -16 -54 -11 -240 -67 -330 -100 -136 -50
-317 -142 -450 -229 -66 -43 -126 -75 -140 -75 -14 0 -54 19 -88 43 -147 98
-407 237 -445 237 -7 0 -17 4 -22 9 -9 8 -180 68 -215 76 -8 1 -35 9 -60 16
-50 14 -54 15 -90 22 -89 19 -141 29 -180 34 -49 6 -75 11 -75 13 0 16 -572
19 -691 5z m449 -1420 c217 -43 376 -171 472 -379 66 -143 81 -255 61 -481 -6
-69 8 -107 47 -130 31 -19 58 -20 832 -21 621 0 807 2 832 12 47 18 61 55 56
144 -7 114 -7 251 0 287 8 50 59 198 68 201 5 2 9 8 9 13 0 15 81 139 91 139
5 0 9 5 9 10 0 16 77 82 143 123 62 38 157 72 232 85 68 11 257 6 315 -8 64
-15 190 -70 190 -82 0 -4 6 -8 13 -8 31 0 152 -118 203 -198 130 -202 157
-423 90 -737 -8 -38 -19 -83 -25 -100 -27 -85 -56 -155 -82 -202 -15 -29 -26
-53 -24 -53 3 0 -14 -35 -37 -77 -23 -43 -46 -88 -52 -100 -6 -13 -14 -23 -18
-23 -5 0 -8 -5 -8 -11 0 -7 -16 -36 -35 -65 -19 -29 -35 -57 -35 -62 0 -6 -4
-12 -8 -14 -4 -1 -19 -21 -32 -43 -123 -202 -523 -722 -682 -888 -16 -16 -28
-30 -28 -32 0 -5 -67 -80 -117 -132 -24 -24 -43 -46 -43 -49 0 -3 -10 -15 -22
-28 -13 -12 -48 -50 -78 -83 -99 -106 -281 -302 -344 -367 -33 -35 -142 -148
-241 -252 -294 -306 -291 -304 -332 -304 -29 0 -46 9 -84 45 -26 25 -47 45
-46 45 1 0 -60 64 -137 142 -124 128 -311 323 -501 523 -36 38 -101 108 -144
155 -43 47 -92 101 -110 120 -18 19 -51 57 -74 83 -23 27 -55 63 -70 80 -16
18 -48 54 -70 81 -23 26 -52 60 -65 75 -62 70 -367 455 -402 507 -8 12 -51 74
-95 138 -44 64 -84 124 -90 133 -5 10 -16 23 -22 31 -7 7 -13 20 -13 28 0 8
-4 14 -9 14 -5 0 -13 10 -17 23 -4 12 -10 24 -13 27 -20 15 -147 252 -199 370
-70 158 -106 310 -118 490 -6 101 -6 92 0 160 34 340 265 599 576 647 19 3 36
6 38 8 5 5 212 -3 245 -10z"/>
</g>
</svg>
