<svg xmlns="http://www.w3.org/2000/svg" viewBox="0 0 727.84 527.35"><defs><style>.cls-1{fill:#ffebc6;}</style></defs><title>Asset 1</title><g id="Layer_2" data-name="Layer 2"><g id="Layer_1-2" data-name="Layer 1"><path class="cls-1" d="M483.67,442.22q12.09-11.48,17.62-22.42a52.17,52.17,0,0,0,5.53-23.88,54.6,54.6,0,0,0-4.59-22.42,53.73,53.73,0,0,0-12.72-17.83A58.25,58.25,0,0,0,470.22,344a69.1,69.1,0,0,0-24.29-4.17,66.53,66.53,0,0,0-24.51,4.38,55.6,55.6,0,0,0-19.29,12.52,56.75,56.75,0,0,0-12.62,19.39,66.08,66.08,0,0,0-4.45,22.81,2.18,2.18,0,0,0,2.19,2.22h39.92a2.19,2.19,0,0,0,2.17-2.45,39.47,39.47,0,0,1-.31-4.23,20,20,0,0,1,4.7-13.55q4.68-5.43,13-5.42a16.69,16.69,0,0,1,13.14,5.73,17.65,17.65,0,0,1,3.44,5.94,21.19,21.19,0,0,1,1.15,6.89,39.12,39.12,0,0,1-1.05,8.13c-.69,3.2-2.47,7.37-5.31,12.51a149.94,149.94,0,0,1-13,18.87q-8.76,11.16-24.19,27.22l-35.43,36.76a2.18,2.18,0,0,0,1.57,3.7H506.3a2.19,2.19,0,0,0,2.19-2.19V468.8a2.19,2.19,0,0,0-2.19-2.18H463.13a2.19,2.19,0,0,1-1.49-3.78Z" transform="translate(-117.1 21.73)"/><path class="cls-1" d="M623.59,362.14a62.73,62.73,0,0,0-75-16.79,62,62,0,0,0-21.07,16.79,78.76,78.76,0,0,0-13.76,26.17,121.07,121.07,0,0,0,0,68.19,80,80,0,0,0,13.76,26.28,61.5,61.5,0,0,0,21.07,16.89,64,64,0,0,0,53.9,0,60.22,60.22,0,0,0,21.07-16.89,81.2,81.2,0,0,0,13.66-26.28,121.07,121.07,0,0,0,0-68.19,79.91,79.91,0,0,0-13.66-26.17m-23.78,79.24a57.71,57.71,0,0,1-5.21,14.81,27.18,27.18,0,0,1-8.24,9.7,18.64,18.64,0,0,1-21.58,0,28.76,28.76,0,0,1-8.24-9.7,55.53,55.53,0,0,1-5.32-14.81,96.7,96.7,0,0,1,0-37.85,54,54,0,0,1,5.32-14.8,29,29,0,0,1,8.24-9.6,18.64,18.64,0,0,1,21.58,0,27.42,27.42,0,0,1,8.24,9.6,56,56,0,0,1,5.21,14.8,96.19,96.19,0,0,1,0,37.85" transform="translate(-117.1 21.73)"/><path class="cls-1" d="M799.59,466.62a2.19,2.19,0,0,1-1.5-3.78l22-20.62q12.11-11.48,17.63-22.42a52.29,52.29,0,0,0,5.52-23.88,54.52,54.52,0,0,0-4.59-22.41A53.67,53.67,0,0,0,826,355.67,58.06,58.06,0,0,0,806.67,344a68.84,68.84,0,0,0-24.29-4.18,66.53,66.53,0,0,0-24.51,4.38,57.22,57.22,0,0,0-12.84,7,2.21,2.21,0,0,1-2.61,0,57.22,57.22,0,0,0-12.84-7,66.51,66.51,0,0,0-24.5-4.38,68.9,68.9,0,0,0-24.3,4.18,58.16,58.16,0,0,0-19.29,11.67,53.67,53.67,0,0,0-12.72,17.84,54.52,54.52,0,0,0-4.59,22.41,52.3,52.3,0,0,0,5.53,23.88q5.52,10.95,17.62,22.42l22,20.62a2.18,2.18,0,0,1-1.49,3.78H644.7a2.19,2.19,0,0,0-2.19,2.18v30.25a2.19,2.19,0,0,0,2.19,2.19H842.76a2.19,2.19,0,0,0,2.18-2.19V468.8a2.19,2.19,0,0,0-2.18-2.18Zm-42.24-5.84-12.05,12.5a2.19,2.19,0,0,1-3.15,0l-12-12.5q-15.44-16.06-24.19-27.22a148.64,148.64,0,0,1-13-18.87q-4.27-7.71-5.32-12.51a39.71,39.71,0,0,1-1-8.13,21.19,21.19,0,0,1,1.14-6.89,17.82,17.82,0,0,1,3.44-5.94,16.69,16.69,0,0,1,13.14-5.73q8.34,0,13,5.42a19.46,19.46,0,0,1,4.62,11.92,2,2,0,0,1,0,.35c-.13,1.2-.27,3.43-.38,5.22a2.59,2.59,0,0,0,2.58,2.74h39.25a2.59,2.59,0,0,0,2.58-2.75c-.11-1.79-.25-4-.37-5.21a2,2,0,0,1,0-.35,19.47,19.47,0,0,1,4.63-11.92q4.7-5.43,13-5.42a17.1,17.1,0,0,1,16.58,11.67,21.19,21.19,0,0,1,1.15,6.89,39.71,39.71,0,0,1-1,8.13q-1,4.8-5.32,12.51a148.88,148.88,0,0,1-13,18.87q-8.74,11.16-24.19,27.22" transform="translate(-117.1 21.73)"/><path class="cls-1" d="M283.82,171.93V19.06a2.19,2.19,0,0,0-2.18-2.19H210.23a2.2,2.2,0,0,0-1.73.86l-45.27,58.9a2.18,2.18,0,0,1-3.91-1.33V19.06a2.19,2.19,0,0,0-2.19-2.19h-36.5a2.19,2.19,0,0,0-2.19,2.19V171.93a2.18,2.18,0,0,0,2.19,2.18h36.5a2.18,2.18,0,0,0,2.19-2.18V112.28a2.18,2.18,0,0,1,3.9-1.35l48.62,62.34a2.18,2.18,0,0,0,1.72.84h68.08a2.18,2.18,0,0,0,2.18-2.18m-85.38-82,40.65-48.54A2.19,2.19,0,0,1,243,42.8v97.89a2.18,2.18,0,0,1-3.87,1.39L198.42,92.72a2.19,2.19,0,0,1,0-2.79" transform="translate(-117.1 21.73)"/><path class="cls-1" d="M329,83.78l61.36,89.39a2.21,2.21,0,0,0,1.81.94h32.21a2.18,2.18,0,0,0,2.19-2.18v-18.6a2.16,2.16,0,0,1,3.69-1.52l0,0a78.31,78.31,0,0,0,26.19,16.83,95.5,95.5,0,0,0,67,0,79.2,79.2,0,0,0,26.39-16.83,76.84,76.84,0,0,0,17.22-25.19,78.32,78.32,0,0,0,6.18-31.16,78.37,78.37,0,0,0-6.18-31.17,76.84,76.84,0,0,0-17.22-25.19,79.2,79.2,0,0,0-26.39-16.83,95.36,95.36,0,0,0-67,0,78.31,78.31,0,0,0-26.19,16.83l0,0a2.16,2.16,0,0,1-3.69-1.52V19.06a2.19,2.19,0,0,0-2.19-2.19H393.23a2.18,2.18,0,0,0-2.18,2.19V106a2.19,2.19,0,0,1-4,1.24L325.7,17.82a2.2,2.2,0,0,0-1.8-.95H291.5a2.19,2.19,0,0,0-2.19,2.19V171.93a2.18,2.18,0,0,0,2.19,2.18h31.36a2.18,2.18,0,0,0,2.19-2.18V85a2.18,2.18,0,0,1,4-1.24M451.24,79a41.28,41.28,0,0,1,22.61-21.81,43.44,43.44,0,0,1,46,8.66A41.17,41.17,0,0,1,529.11,79a42.09,42.09,0,0,1,0,33.05,41.17,41.17,0,0,1-9.26,13.15,43.78,43.78,0,0,1-46,8.66A41.28,41.28,0,0,1,451.24,112a42.09,42.09,0,0,1,0-33" transform="translate(-117.1 21.73)"/><path class="cls-1" d="M380.23,276.91a31.58,31.58,0,0,0-5.52-11.26,32.39,32.39,0,0,0-10-8.44,44.75,44.75,0,0,0-10.18-4,2.18,2.18,0,0,1-.76-3.84,34,34,0,0,0,9.06-10.49q4.28-7.82,4.28-19.7,0-19.6-11.26-30t-32.95-10.43H264.18a2.19,2.19,0,0,0-2.19,2.18V333.75a2.19,2.19,0,0,0,2.19,2.18h63.5A80.36,80.36,0,0,0,350.21,333a46.18,46.18,0,0,0,17-8.76A39.65,39.65,0,0,0,378,309.86a47.06,47.06,0,0,0,3.86-19.6,51.35,51.35,0,0,0-1.67-13.35m-77.36-64.75a2.18,2.18,0,0,1,2.18-2.19h5.32q19.19,0,19.19,15.23t-19.19,15.22h-5.32a2.18,2.18,0,0,1-2.18-2.19Zm31.07,88.11q-6.68,4-22.11,4h-6.78a2.18,2.18,0,0,1-2.18-2.18v-29a2.17,2.17,0,0,1,2.18-2.18h6.78q15.44,0,22.11,4t6.67,12.72q0,8.76-6.67,12.72" transform="translate(-117.1 21.73)"/><path class="cls-1" d="M385.45,180.88V333.75a2.18,2.18,0,0,0,2.18,2.18h85.51a2.19,2.19,0,0,0,2.19-2.18V303.5a2.19,2.19,0,0,0-2.19-2.19H428.51a2.18,2.18,0,0,1-2.19-2.18V180.88a2.19,2.19,0,0,0-2.18-2.19H387.63a2.18,2.18,0,0,0-2.18,2.19" transform="translate(-117.1 21.73)"/><path class="cls-1" d="M569.4,211.12V180.87a2.19,2.19,0,0,0-2.18-2.18h-85.1a2.19,2.19,0,0,0-2.18,2.18V333.75a2.19,2.19,0,0,0,2.18,2.18h85.1a2.19,2.19,0,0,0,2.18-2.18V303.5a2.19,2.19,0,0,0-2.18-2.19H523a2.18,2.18,0,0,1-2.18-2.18V276.39A2.19,2.19,0,0,1,523,274.2h41.52a2.19,2.19,0,0,0,2.18-2.18V241.77a2.19,2.19,0,0,0-2.18-2.19H523a2.18,2.18,0,0,1-2.18-2.18V215.49a2.19,2.19,0,0,1,2.18-2.18h44.23a2.19,2.19,0,0,0,2.18-2.19" transform="translate(-117.1 21.73)"/><path class="cls-1" d="M664.37,329.47A81.38,81.38,0,0,0,689,312.16,79.77,79.77,0,0,0,705.45,287a77.22,77.22,0,0,0-.1-59.64,79.92,79.92,0,0,0-16.58-25,82.5,82.5,0,0,0-24.61-17.21A71.47,71.47,0,0,0,634,178.69h-58.3a2.19,2.19,0,0,0-2.18,2.18V333.75a2.19,2.19,0,0,0,2.18,2.18H634a71.84,71.84,0,0,0,30.34-6.46m-50-30.34V215.49a2.19,2.19,0,0,1,2.19-2.18h7.2a50.3,50.3,0,0,1,18.77,3.33,40.7,40.7,0,0,1,14.07,9.18,40.27,40.27,0,0,1,8.86,14,48.28,48.28,0,0,1,3.13,17.52,49.72,49.72,0,0,1-3,17.62,39.31,39.31,0,0,1-8.76,13.87A40.74,40.74,0,0,1,642.78,298a50.81,50.81,0,0,1-19,3.33h-7.2a2.18,2.18,0,0,1-2.19-2.18" transform="translate(-117.1 21.73)"/><path class="cls-1" d="M133.46-20.37a.94.94,0,0,0-.9-.62h-4.88a1,1,0,0,0-.89.62L117.16,5.3a1,1,0,0,0,.9,1.29h4a1,1,0,0,0,.9-.64l1.7-4.86a1,1,0,0,1,.9-.64l8.94,0a1,1,0,0,1,.91.65l1.65,4.83a1,1,0,0,0,.91.65h4.22a1,1,0,0,0,.89-1.3ZM132.28-4.09h-4.44a1,1,0,0,1-.91-1.28L130-14.2h.08l3.06,8.83a1,1,0,0,1-.9,1.28" transform="translate(-117.1 21.73)"/><path class="cls-1" d="M174.18-2.7h-4a1,1,0,0,0-.95.83,4.42,4.42,0,0,1-.45,1.53,4.33,4.33,0,0,1-1.33,1.57,5.86,5.86,0,0,1-1.94.89,9.39,9.39,0,0,1-2.32.29,10.71,10.71,0,0,1-1.73-.13,5.94,5.94,0,0,1-1.74-.51A3.82,3.82,0,0,1,158.39.72,2.67,2.67,0,0,1,157.84-1a2.43,2.43,0,0,1,.71-1.81A5.63,5.63,0,0,1,160.42-4,18.45,18.45,0,0,1,163-4.79q1.47-.34,3-.78a27.71,27.71,0,0,0,3-.95A10.41,10.41,0,0,0,171.64-8a6.69,6.69,0,0,0,1.86-2.22,6.69,6.69,0,0,0,.71-3.22,7.26,7.26,0,0,0-.92-3.69,8.08,8.08,0,0,0-2.38-2.59,10.11,10.11,0,0,0-3.32-1.54,14.25,14.25,0,0,0-3.7-.49,17.6,17.6,0,0,0-4.15.49,10.58,10.58,0,0,0-3.53,1.57,8,8,0,0,0-2.44,2.77,7.78,7.78,0,0,0-.85,3,1,1,0,0,0,1,1.05h4a1,1,0,0,0,.94-.78,4.41,4.41,0,0,1,.42-1.27,3.47,3.47,0,0,1,1.18-1.28,5,5,0,0,1,1.67-.66,10.27,10.27,0,0,1,2.07-.19,6.52,6.52,0,0,1,1.46.15,4,4,0,0,1,1.34.53,3.24,3.24,0,0,1,1,1,2.54,2.54,0,0,1,.39,1.46,2.52,2.52,0,0,1-.3,1.31,2.71,2.71,0,0,1-1.22.93,15,15,0,0,1-2.5.86l-4.18,1.09c-.52.1-1.23.29-2.14.56a10.55,10.55,0,0,0-2.72,1.3A8.27,8.27,0,0,0,153-5.48a6.72,6.72,0,0,0-1,3.8,8.4,8.4,0,0,0,.74,3.51,7.67,7.67,0,0,0,2.19,2.8,10.37,10.37,0,0,0,3.59,1.82,16.91,16.91,0,0,0,5,.64,17,17,0,0,0,4.41-.57,11,11,0,0,0,3.78-1.76,8.68,8.68,0,0,0,2.6-3.06,8.57,8.57,0,0,0,.89-3.39,1,1,0,0,0-1-1" transform="translate(-117.1 21.73)"/><path class="cls-1" d="M207.39-21.19h-4.14a1,1,0,0,0-1,1l0,8a1,1,0,0,1-.95,1H196a11.72,11.72,0,0,0-4.4.76,8.23,8.23,0,0,0-2.94,2A7.45,7.45,0,0,0,187-5.68a10.39,10.39,0,0,0-.52,3.26A10.68,10.68,0,0,0,187,.86a7.67,7.67,0,0,0,1.67,2.81,8.27,8.27,0,0,0,3,2,11.32,11.32,0,0,0,4.4.74l11.46,0a1,1,0,0,0,1-1l-.07-25.63a1,1,0,0,0-1-1m-6,22.86h-3.75a13,13,0,0,1-2-.15,4.69,4.69,0,0,1-1.7-.59,3.23,3.23,0,0,1-1.18-1.25,4.36,4.36,0,0,1-.45-2.12,4.38,4.38,0,0,1,.44-2.13,3.14,3.14,0,0,1,1.17-1.25,4.71,4.71,0,0,1,1.7-.61,14.33,14.33,0,0,1,2-.16h3.75a1,1,0,0,1,1,1l0,6.34a1,1,0,0,1-1,1" transform="translate(-117.1 21.73)"/><path class="cls-1" d="M239.8-21.27l-18.69.05a1,1,0,0,0-1,1v3.18a1,1,0,0,0,1,.95l12.63,0a1,1,0,0,1,1,1v4a1,1,0,0,1-1,1l-11.43,0a1,1,0,0,0-1,1v2.79a1,1,0,0,0,1,1l11.43,0a1,1,0,0,1,1,1l0,4.83a1,1,0,0,1-1,1l-12.94,0a1,1,0,0,0-1,1V5.37a1,1,0,0,0,1,1l19,0a1,1,0,0,0,1-1l-.07-25.63a1,1,0,0,0-1-1" transform="translate(-117.1 21.73)"/><path class="cls-1" d="M266.68-9.8a1,1,0,0,1,.09-1.23l8.57-8.7a1,1,0,0,0-.69-1.63l-4.85,0a1,1,0,0,0-.7.3l-8.8,9.38a1,1,0,0,1-1.66-.65l0-8a1,1,0,0,0-1-.95h-4.14a1,1,0,0,0-1,1l.06,25.63a1,1,0,0,0,1,1h4.14a1,1,0,0,0,1-1l0-7.52a1,1,0,0,1,.27-.67l2.37-2.41a1,1,0,0,1,1.48.14l7.38,11a1,1,0,0,0,.8.42h5.24A1,1,0,0,0,277,4.67Z" transform="translate(-117.1 21.73)"/><path class="cls-1" d="M308.61,2a1,1,0,0,0-1-1l-6.34,0a1,1,0,0,1-1-1l0-20.53a1,1,0,0,0-1-1h-4.14a1,1,0,0,0-1,1L294.29.09a1,1,0,0,1-1,1l-6.34,0A1,1,0,0,0,286,2V5.2a1,1,0,0,0,1,1l20.66,0a1,1,0,0,0,.95-1Z" transform="translate(-117.1 21.73)"/></g></g></svg>